name processed_emg_signals
nRows=50
nColumns=7
 
endheader
time	LGLTMED	LRF	LADDLONG	LST	LTA	LGM
0.485	0.017364143736499	0.056407644161252	0.1814908407344832	0.0229607229529327	0.374733940758237	0.03161167029621
0.486	0.0173730005593934	0.0565330065369585	0.1816347712219995	0.0229242390451567	0.3748817277536829	0.031726132564237
0.487	0.0173802684951872	0.0566700644616856	0.1817192911060398	0.0228826985809263	0.3749254420949463	0.0318304234655085
0.488	0.0173859307638565	0.0568186493591597	0.181744099621536	0.0228359869277691	0.3748660374983648	0.0319246610606563
0.489	0.0173899765707783	0.0569785681315387	0.181708964178174	0.022783993565	0.3747045774446708	0.0320089738591637
0.49	0.017392401193611	0.0571496033187313	0.1816137207658952	0.0227266123363953	0.3744422332070788	0.0320835002827605
0.491	0.0173932060598216	0.0573315133006572	0.1814582742085758	0.0226637417045958	0.3740802816868198	0.0321483881346895
0.492	0.0173923988146169	0.0575240325428677	0.1812425982669047	0.0225952850071551	0.373620103061983	0.0322037940750881
0.493	0.0173899933791324	0.0577268718858951	0.1809667355925861	0.0225211507141789	0.3730631782559201	0.032249883102645
0.494	0.0173860099987246	0.0579397188786401	0.1806307975368579	0.0224412526874428	0.3724110862321349	0.0322868280426706
0.495	0.0173804752812607	0.0581622381559946	0.1802349638172448	0.0223555104408648	0.3716655011234382	0.0323148090416196
0.496	0.0173734222252992	0.0583940718608398	0.1797794820471683	0.022263849402209	0.3708281892039763	0.0323340130681426
0.497	0.0173648902380218	0.0586348401103505	0.1792646671338024	0.022166201175807	0.3699010057133805	0.0323446334207163
0.498	0.0173549251427863	0.05888414150645	0.1786909005501552	0.0220625038060969	0.3688858915424681	0.0323468692419215
0.499	0.0173435791761701	0.059141553690085	0.17805862948779	0.021952702041751	0.367784869789843	0.0323409250394443
0.5	0.0173309109743367	0.0594066339388296	0.177368365896939	0.0218367476001542	0.3666000421984519	0.0323270102138457
0.501	0.0173169855486687	0.0596789198072102	0.1766206854209854	0.0217145994319299	0.3653335854807115	0.0323053385930978
0.502	0.0173018742505194	0.0599579298089402	0.1758162262324008	0.0215862239852043	0.3639877475402075	0.0322761279738279
0.503	0.0172856547250668	0.0602431641401743	0.174955687777095	0.0214515954692396	0.3625648435975134	0.032239599669203
0.504	0.0172684108541823	0.0605341054427244	0.1740398294339428	0.0213106961170021	0.361067252227324	0.0321959780633817
0.505	0.0172502326882845	0.060830219606035	0.1730694690959048	0.0211635164461955	0.3594974113137437	0.0321454901725122
0.506	0.0172312163672071	0.0611309566065704	0.1720454816786483	0.0210100555182154	0.3578578139300612	0.0320883652123183
0.507	0.0172114640300949	0.0614357513830416	0.1709687975621787	0.0208503211944305	0.3561510041488283	0.0320248341724007
0.508	0.0171910837144242	0.0617440247458037	0.1698404009704847	0.020684330389162	0.3543795727875458	0.031955129397491
0.509	0.0171701892442528	0.0620551843185731	0.1686613282938825	0.020512109318664	0.3525461530947432	0.0318794841759276
0.51	0.0171489001078275	0.0623686255105596	0.1674326663583456	0.0203336937454307	0.350653416380861	0.0317981323357196
0.511	0.0171273413247249	0.0626837325169051	0.1661555506459566	0.020149129217123	0.348704067598069	0.0317113078486205
0.512	0.0171056433027114	0.0629998793452692	0.1648311634702977	0.0199584712994335	0.3467008408731679	0.0316192444427307
0.513	0.0170839416845731	0.0633164308661973	0.1634607321105271	0.0197617858022183	0.3446464949978226	0.0315221752242025
0.514	0.0170623771852137	0.0636327438849223	0.1620455269076554	0.0195591489982165	0.3425438088807025	0.0314203323086683
0.515	0.0170410954193383	0.0639481682322021	0.1605868593264071	0.0193506478337002	0.3403955769669176	0.0313139464629944
0.516	0.0170202467201002	0.0642620478718101	0.1590860799858486	0.0191363801304086	0.3382046046317368	0.0312032467579591
0.517	0.0169999859490631	0.0645737220224345	0.1575445766618443	0.0189164547781367	0.3359737035575822	0.031088460232412
0.518	0.016980472297828	0.064882526291834	0.1559637722643989	0.0186909919173895	0.3337056871053748	0.0309698115694556
0.519	0.0169618690816976	0.0651877938212769	0.1543451227930794	0.0184601231115718	0.331403365692882	0.0308475227851461
0.52	0.0169443435257013	0.0654888564384997	0.1526901152739346	0.0182239915081729	0.3290695421933137	0.0307218129301831
0.521	0.016928066543402	0.0657850458175047	0.1510002656815383	0.0179827519884935	0.3267070073673397	0.0305928978050306
0.522	0.0169132125088039	0.06607569464366	0.1492771168500013	0.0177365713054399	0.3243185353412229	0.0304609896888087
0.523	0.0168999590217932	0.0663601377826387	0.1475222363769087	0.0174856282089704	0.3219068791433458	0.0303262970822556
0.524	0.01688848666745	0.0666377134516767	0.1457372145240639	0.0172301135587577	0.3194747663109161	0.0301890244649544
0.525	0.0168789787696345	0.0669077643916122	0.1439236621187141	0.016970230423655	0.3170248945778429	0.030049372066985
0.526	0.0168716211391939	0.0671696390380005	0.1420832084587097	0.0167061941675123	0.3145599276539425	0.0299075356550956
0.527	0.0168666018171664	0.0674226926895064	0.1402174992247733	0.0164382325208819	0.3120824911045767	0.0297637063334683
0.528	0.0168641108133284	0.0676662886715763	0.138328194402814	0.0161665856381693	0.3095951683389564	0.0296180703591434
0.529	0.0168643398404406	0.0678997994933306	0.1364169662189567	0.0158915061397925	0.3071004967146165	0.029470808972204
0.53	0.0168674820445033	0.0681226079954116	0.1344854970896223	0.0156132591389603	0.3046009637651907	0.0293220982408653
0.531	0.0168737317312976	0.0683341084864294	0.1325354775887597	0.0153321222527111	0.3020990035585928	0.0291721089215886
0.532	0.0168832840894326	0.0685337078655222	0.1305686044342653	0.0150483855968822	0.2995969931929289	0.0290210063343931
0.533	0.0168963349100893	0.0687208267284545	0.1285865784955581	0.0147623517647209	0.2970972494377021	0.0288689502534135
0.534	0.0169130803036016	0.0688949004546788	0.1265911028243184	0.0144743357888027	0.2946020255281482	0.02871609481272
